<?xml version="1.0" encoding="utf-8"?>
<!-- Svg Vector Icons : http://www.onlinewebfonts.com/icon -->
<!DOCTYPE svg PUBLIC "-//W3C//DTD SVG 1.1//EN" "http://www.w3.org/Graphics/SVG/1.1/DTD/svg11.dtd">
<svg version="1.1" xmlns="http://www.w3.org/2000/svg" xmlns:xlink="http://www.w3.org/1999/xlink" x="0px" y="0px" viewBox="0 0 256 256" enable-background="new 0 0 256 256" xml:space="preserve">
<metadata> Svg Vector Icons : http://www.onlinewebfonts.com/icon </metadata>
<g><g><g><path fill="#000000" d="M51.5,19.2c-10.3,2-19,6.6-26.6,14.2c-5.5,5.5-9.4,11.5-11.8,18.1c-7.6,21.2-0.8,44.4,17.3,58.2l1.7,1.4l-5,0.3c-4.4,0.2-5.4,0.5-8.3,2c-3.6,2-5.2,3.6-7.3,7.6l-1.4,2.7l-0.2,49.8c-0.2,55.5-0.3,52.7,3.5,57.7c1.3,1.7,3.1,3.2,5.4,4.4l3.4,1.9h80.4h80.4l3.3-1.8c3.7-2,5.3-3.6,7.4-7.6c1.4-2.6,1.4-2.9,1.7-14.4l0.3-11.6l25,9.4l25,9.4l0.2-23.1c0.1-12.7,0.1-33.6,0-46.3l-0.2-23.1l-25,9.4l-25,9.4l-0.3-11.6c-0.3-10.8-0.4-11.9-1.5-14.1c-1.8-3.8-4-6-7.6-7.9c-2.8-1.5-4-1.8-8.2-2.1l-4.9-0.3l2.6-2c14.3-10.9,21.9-30.4,18.8-48.1c-3.5-20-17.7-35.4-37.7-40.9c-5.7-1.6-18.5-1.6-24.3,0c-11.5,3.1-21.2,9.6-28.6,19.1l-1.4,1.8l-1.4-1.8c-7.4-9.5-17.3-16.1-28.6-19C67.4,18.5,57,18.2,51.5,19.2z M68.5,54.3c3.5,1.9,5.2,3.6,7.2,7.5c1.2,2.3,1.4,3.4,1.4,7.2c0.1,4.1-0.1,4.7-1.7,7.8c-2,3.7-3.7,5.3-7.6,7.4c-2.3,1.2-3.4,1.4-7.2,1.4s-4.9-0.2-7.2-1.4c-4-2.1-5.6-3.7-7.6-7.4C44.1,73.8,44,73.1,44,69c0-5.3,1.3-8.4,4.7-11.9C54,51.9,61.8,50.8,68.5,54.3z M152,53.8c3.3,1.6,6.5,4.7,8.2,8.1c1.8,3.8,1.8,10.5,0,14.2c-1.6,3.4-4.8,6.5-8.2,8.2c-3.7,1.8-10.4,1.8-14.2,0c-13.7-6.6-12.5-26.1,1.8-31.3C142.9,51.8,148.6,52.1,152,53.8z M104.5,99.5c1.5,2.2,7.2,7.8,10.3,10.2l1.8,1.4h-14h-14l1.8-1.4c3.2-2.5,7.9-7.1,9.9-9.8c1.1-1.4,2.1-2.5,2.3-2.5C102.9,97.5,103.7,98.4,104.5,99.5z"/></g></g></g>
</svg>